<svg width="23" height="23" viewBox="0 0 23 23" fill="none" xmlns="http://www.w3.org/2000/svg">
<g clip-path="url(#clip0)">
<path d="M3.431 20.3128H17.0959L16.4433 18.1997L18.0044 19.5395L19.4352 20.8217L22.0418 23V2.37187C21.9767 1.08962 20.8727 0 19.5042 0L3.43579 0.002875C2.06825 0.002875 0.958496 1.09442 0.958496 2.37667V17.94C0.958496 19.2922 2.06633 20.3128 3.431 20.3128ZM13.5395 5.44621L13.5079 5.45771L13.5194 5.44621H13.5395ZM6.22646 6.66233C7.98308 5.38392 9.61129 5.44525 9.61129 5.44525L9.74258 5.57463C7.59304 6.08733 6.61841 7.04758 6.61841 7.04758C6.61841 7.04758 6.87908 6.92013 7.33429 6.72558C10.2294 5.58708 13.391 5.6695 16.3177 7.11083C16.3177 7.11083 15.3412 6.21287 13.3239 5.63787L13.5021 5.4625C13.781 5.46346 15.2568 5.51521 16.8362 6.67C16.8362 6.67 18.6033 9.68875 18.6033 13.3975C18.5449 13.3266 17.507 14.9941 14.8361 15.0516C14.8361 15.0516 14.3838 14.5398 14.0618 14.0933C15.6239 13.6447 16.2085 12.7477 16.2085 12.7477C15.6957 13.0707 15.2281 13.2624 14.8486 13.454C14.265 13.7109 13.6804 13.8374 13.0967 13.9668C10.3329 14.4152 8.78137 13.6649 7.31512 13.0697L6.81391 12.8148C6.81391 12.8148 7.39754 13.7118 8.89733 14.1603C8.50346 14.6098 8.11341 15.1206 8.11341 15.1206C5.4435 15.0573 4.46983 13.3898 4.46983 13.3898C4.46983 9.67533 6.22646 6.66233 6.22646 6.66233Z" fill="#18E04C"/>
<path d="M13.7118 12.239C14.3932 12.239 14.9481 11.664 14.9481 10.9548C14.9481 10.2504 14.3961 9.67542 13.7118 9.67542V9.67829C13.0333 9.67829 12.4775 10.2514 12.4756 10.9605C12.4756 11.664 13.0305 12.239 13.7118 12.239Z" fill="#18E04C"/>
<path d="M9.28606 12.239C9.96743 12.239 10.5223 11.664 10.5223 10.9548C10.5223 10.2504 9.97127 9.67542 9.28989 9.67542L9.28606 9.67829C8.60468 9.67829 8.0498 10.2514 8.0498 10.9605C8.0498 11.664 8.60468 12.239 9.28606 12.239Z" fill="#18E04C"/>
</g>
<defs>
<clipPath id="clip0">
<rect width="23" height="23" fill="white"/>
</clipPath>
</defs>
</svg>
