<svg width="13" height="5" viewBox="0 0 13 5" fill="none" xmlns="http://www.w3.org/2000/svg">
<path d="M3.888 2.578C3.888 3.118 3.714 3.532 3.366 3.82C3.03 4.096 2.646 4.234 2.214 4.234C1.782 4.234 1.392 4.096 1.044 3.82C0.708 3.532 0.54 3.118 0.54 2.578C0.54 2.038 0.708 1.63 1.044 1.354C1.392 1.066 1.782 0.922 2.214 0.922C2.646 0.922 3.03 1.066 3.366 1.354C3.714 1.63 3.888 2.038 3.888 2.578ZM8.31769 2.578C8.31769 3.118 8.14369 3.532 7.79569 3.82C7.45969 4.096 7.07569 4.234 6.64369 4.234C6.21169 4.234 5.82169 4.096 5.47369 3.82C5.13769 3.532 4.96969 3.118 4.96969 2.578C4.96969 2.038 5.13769 1.63 5.47369 1.354C5.82169 1.066 6.21169 0.922 6.64369 0.922C7.07569 0.922 7.45969 1.066 7.79569 1.354C8.14369 1.63 8.31769 2.038 8.31769 2.578ZM12.7474 2.578C12.7474 3.118 12.5734 3.532 12.2254 3.82C11.8894 4.096 11.5054 4.234 11.0734 4.234C10.6414 4.234 10.2514 4.096 9.90338 3.82C9.56738 3.532 9.39938 3.118 9.39938 2.578C9.39938 2.038 9.56738 1.63 9.90338 1.354C10.2514 1.066 10.6414 0.922 11.0734 0.922C11.5054 0.922 11.8894 1.066 12.2254 1.354C12.5734 1.63 12.7474 2.038 12.7474 2.578Z" fill="white"/>
</svg>
