<svg width="22" height="22" viewBox="0 0 22 22" fill="none" xmlns="http://www.w3.org/2000/svg">
<path d="M3.90518 1.8519C3.15307 0.759709 1.67558 0.589391 0.712064 1.52563C-0.119262 2.34849 -0.185119 3.73822 0.487768 4.71704L4.82861 10.9716L0.461521 17.2831C-0.211366 18.2619 -0.158394 19.6517 0.685817 20.4745C1.64886 21.4108 3.12682 21.2405 3.87893 20.1483L9.97453 11.3405C10.1196 11.1276 10.1196 10.83 9.97453 10.6171L3.90518 1.8519Z" fill="white"/>
<path d="M18.0895 1.8519C18.8426 0.759709 20.322 0.589391 21.2868 1.52563C22.1193 2.34849 22.1852 3.73822 21.5114 4.71704L17.1648 10.9716L21.5377 17.2831C22.2115 18.2619 22.1584 19.6517 21.3131 20.4745C20.3488 21.4108 18.8689 21.2405 18.1158 20.1483L12.0255 11.3261C11.8802 11.1132 11.8802 10.8157 12.0255 10.6028L18.0895 1.8519Z" fill="white"/>
</svg>
