<svg width="30" height="24" viewBox="0 0 30 24" fill="none" xmlns="http://www.w3.org/2000/svg">
<path d="M29.803 5.71816C29.803 3.08144 27.8635 0.960351 25.4671 0.960351C22.221 0.808594 18.9104 0.75 15.5272 0.75H14.4725C11.0975 0.75 7.78112 0.808594 4.53502 0.960937C2.1444 0.960937 0.204946 3.09375 0.204946 5.73047C0.0584618 7.81582 -0.00364759 9.90176 -0.000131968 11.9877C-0.00599134 14.0736 0.0604149 16.1615 0.199087 18.2514C0.199087 20.8881 2.13854 23.0268 4.52917 23.0268C7.93932 23.185 11.4374 23.2553 14.994 23.2494C18.5565 23.2611 22.0448 23.1869 25.4589 23.0268C27.8553 23.0268 29.7948 20.8881 29.7948 18.2514C29.9354 16.1596 29.9999 14.0736 29.994 11.9818C30.0073 9.8959 29.9436 7.80801 29.803 5.71816ZM12.1288 17.7357V6.22207L20.6249 11.976L12.1288 17.7357Z" fill="white"/>
</svg>
