<?xml version="1.0" standalone="no"?>
<!DOCTYPE svg PUBLIC "-//W3C//DTD SVG 20010904//EN"
 "http://www.w3.org/TR/2001/REC-SVG-20010904/DTD/svg10.dtd">
<svg version="1.0" xmlns="http://www.w3.org/2000/svg"
 width="512.000000pt" height="512.000000pt" viewBox="0 0 512.000000 512.000000"
 preserveAspectRatio="xMidYMid meet">
<metadata>
Created by potrace 1.11, written by Peter Selinger 2001-2013
</metadata>
<g transform="translate(0.000000,512.000000) scale(0.100000,-0.100000)"
fill="#000000" stroke="none">
<path d="M1650 4625 c0 -18 -5 -25 -19 -25 -53 0 -51 21 -51 -426 l0 -414
-135 0 -135 0 0 -285 0 -285 135 0 135 0 0 -222 0 -221 -22 19 c-13 10 -161
157 -330 325 -242 240 -308 311 -307 330 1 17 3 19 6 7 7 -27 18 -22 39 19 10
21 38 66 62 100 23 34 42 66 42 72 0 5 4 11 8 13 4 2 30 35 57 73 62 88 268
295 358 360 l67 49 0 148 c0 144 -1 148 -21 148 -29 0 -191 -108 -308 -205
-36 -29 -201 -194 -236 -235 -35 -40 -175 -238 -175 -246 0 -3 -9 -19 -20 -34
-11 -16 -36 -59 -55 -97 -30 -60 -34 -64 -35 -38 0 26 -33 63 -223 253 -217
216 -224 222 -263 222 l-41 0 -56 -117 c-118 -247 -119 -252 -124 -404 -4
-123 -3 -140 16 -177 30 -59 79 -111 701 -734 545 -548 566 -568 602 -568 20
0 42 6 47 13 101 126 182 207 209 207 25 0 60 -33 93 -87 13 -20 27 -32 35
-29 10 4 14 -10 16 -57 l3 -62 125 -3 c163 -4 168 -2 172 48 l3 40 219 -219
219 -220 -196 -195 c-163 -163 -197 -193 -207 -180 -24 28 -70 10 -70 -27 0
-9 7 -22 15 -29 12 -10 -29 -55 -244 -271 l-258 -259 -71 0 c-40 0 -72 -3 -72
-6 0 -3 16 -25 35 -48 26 -32 35 -53 35 -80 0 -36 0 -36 43 -36 35 0 49 -6 72
-30 16 -17 37 -30 47 -30 16 0 18 9 18 73 l0 73 252 251 c227 226 254 251 268
238 21 -19 25 -19 50 2 24 21 25 31 5 53 -13 14 5 35 180 210 l195 195 195
-195 c175 -175 193 -196 180 -210 -20 -22 -19 -32 5 -53 25 -21 29 -21 50 -2
14 13 41 -12 268 -238 l252 -251 0 -73 c0 -64 2 -73 18 -73 10 0 31 13 47 30
23 24 37 30 72 30 43 0 43 0 43 36 0 27 9 48 35 80 19 23 35 45 35 48 0 3 -32
6 -72 6 l-71 0 -258 259 c-215 216 -256 261 -244 271 8 7 15 20 15 29 0 37
-46 55 -70 27 -10 -13 -44 17 -207 180 l-196 195 219 220 219 219 3 -40 c4
-50 9 -52 172 -48 l125 3 3 62 c2 47 6 61 16 57 8 -3 22 9 35 29 34 55 68 87
94 87 24 0 83 -56 176 -167 38 -46 49 -53 80 -53 35 0 63 27 601 568 622 623
671 675 701 734 19 37 20 54 16 177 -5 152 -6 157 -124 404 l-56 117 -41 0
c-39 0 -46 -6 -263 -222 -190 -190 -223 -227 -223 -253 -1 -26 -5 -22 -35 38
-19 38 -44 81 -55 97 -11 15 -20 31 -20 34 0 8 -140 206 -175 246 -35 41 -200
206 -236 235 -117 97 -279 205 -308 205 -20 0 -21 -4 -21 -148 l0 -148 68 -49
c89 -65 295 -272 357 -360 27 -38 53 -71 57 -73 4 -2 8 -8 8 -13 0 -6 20 -38
43 -72 24 -35 52 -79 62 -100 19 -40 31 -47 38 -19 3 12 5 10 6 -7 1 -19 -65
-90 -306 -330 -170 -168 -318 -315 -330 -325 l-23 -19 0 221 0 222 135 0 135
0 0 285 0 285 -135 0 -135 0 0 414 c0 447 2 426 -51 426 -14 0 -19 7 -19 25
l0 25 -910 0 -910 0 0 -25z m-1366 -751 c22 -21 20 -40 -5 -58 -38 -26 -72 11
-49 54 13 24 33 26 54 4z m4606 -4 c23 -43 -11 -80 -49 -54 -25 18 -27 37 -5
58 21 22 41 20 54 -4z m-4497 -112 c14 -41 -52 -67 -73 -28 -15 28 22 65 49
50 11 -5 21 -15 24 -22z m4410 0 c14 -41 -52 -67 -73 -28 -15 28 22 65 49 50
11 -5 21 -15 24 -22z m-1293 -38 c0 -20 -7 -20 -950 -20 -943 0 -950 0 -950
20 0 20 7 20 950 20 943 0 950 0 950 -20z m-3030 -50 c13 -24 5 -56 -16 -64
-21 -8 -55 29 -47 51 14 37 47 44 63 13z m4206 12 c22 -15 24 -42 4 -62 -34
-34 -74 5 -50 50 11 21 27 25 46 12z m-4112 -108 c22 -21 20 -40 -5 -58 -25
-17 -40 -13 -57 15 -11 18 -11 24 4 40 21 23 38 24 58 3z m4030 -3 c15 -16 15
-22 4 -40 -17 -28 -32 -32 -57 -15 -25 18 -27 37 -5 58 20 21 37 20 58 -3z
m-3920 -128 c-13 -32 -24 -66 -24 -75 0 -22 139 -160 158 -156 8 2 20 11 26
20 12 20 -14 54 -48 61 -18 4 -17 4 5 6 16 0 35 -9 49 -24 l24 -26 -32 -32
-32 -32 -115 119 c-121 124 -123 128 -78 168 10 9 32 18 48 21 17 2 33 5 36 6
4 0 -4 -25 -17 -56z m3819 28 c45 -38 43 -43 -78 -167 l-115 -119 -32 32 -32
32 24 26 c14 15 33 24 49 24 22 -2 23 -2 5 -6 -34 -7 -60 -41 -48 -61 6 -9 18
-18 26 -20 19 -4 158 134 158 156 0 9 -11 42 -24 74 l-23 56 36 -5 c20 -3 44
-13 54 -22z m-2093 -266 l0 -265 -265 0 -265 0 0 265 0 265 265 0 265 0 0
-265z m-1543 213 c-3 -8 -6 -5 -6 6 -1 11 2 17 5 13 3 -3 4 -12 1 -19z m3390
0 c-3 -8 -6 -5 -6 6 -1 11 2 17 5 13 3 -3 4 -12 1 -19z m-3437 -38 c0 -25 -4
-30 -22 -29 -17 1 -19 2 -5 6 10 3 17 14 17 29 0 13 2 24 5 24 3 0 5 -13 5
-30z m3508 -23 c12 -3 10 -5 -5 -6 -20 -1 -23 4 -22 32 2 29 2 29 6 5 2 -15
12 -29 21 -31z m-1088 -292 l0 -125 -265 0 -265 0 0 125 0 125 265 0 265 0 0
-125z m-2697 -23 c18 -12 39 -28 47 -35 8 -7 62 -52 120 -101 58 -49 116 -95
130 -104 14 -9 57 -43 95 -77 39 -33 99 -82 134 -110 66 -53 363 -294 370
-301 2 -2 -41 -4 -97 -4 l-100 0 -388 388 c-214 213 -402 403 -419 422 -27 31
-24 30 23 -10 30 -25 68 -55 85 -68z m4140 76 c-16 -18 -203 -207 -417 -420
l-388 -388 -100 0 c-56 0 -99 2 -97 4 7 7 304 248 370 301 35 28 95 77 134
110 38 34 81 68 95 77 24 15 229 185 240 198 3 4 25 21 50 38 25 17 65 49 90
71 55 49 61 51 23 9z m-3033 -647 c0 -2 -17 12 -38 30 -22 19 -69 56 -106 83
-37 26 -88 66 -114 88 -81 69 -86 73 -137 108 -28 18 -68 49 -91 69 -52 46
-65 56 -165 132 -46 34 -87 65 -92 69 -4 3 11 26 33 49 l41 43 334 -334 c184
-183 335 -335 335 -337z m2531 627 c21 -23 36 -45 32 -48 -5 -4 -46 -35 -92
-69 -100 -76 -113 -86 -165 -132 -23 -20 -63 -51 -91 -69 -51 -35 -56 -39
-137 -108 -26 -22 -77 -62 -114 -88 -37 -27 -85 -65 -108 -84 -23 -18 110 117
294 303 184 185 336 336 338 337 1 0 21 -19 43 -42z m-2461 -484 c0 -14 -3
-14 -15 -4 -8 7 -15 14 -15 16 0 2 7 4 15 4 8 0 15 -7 15 -16z m482 -151 l3
-168 148 -3 147 -3 0 171 0 170 60 0 60 0 0 -170 0 -171 148 3 147 3 3 168 2
167 90 0 90 0 0 -181 c0 -99 -4 -178 -9 -175 -4 3 -126 -111 -270 -254 l-261
-260 -261 260 c-144 143 -265 260 -270 260 -5 0 -9 79 -9 175 l0 175 90 0 90
0 2 -167z m1228 163 c0 -2 -7 -9 -15 -16 -12 -10 -15 -10 -15 4 0 9 7 16 15
16 8 0 15 -2 15 -4z m-23 -218 c-3 -7 -5 -2 -5 12 0 14 2 19 5 13 2 -7 2 -19
0 -25z"/>
<path d="M550 2553 c0 -180 8 -280 29 -368 32 -134 56 -217 76 -270 13 -33 37
-96 54 -140 59 -155 242 -428 362 -542 34 -32 78 -75 98 -97 20 -21 63 -59 96
-84 33 -25 62 -49 65 -53 8 -10 255 -157 271 -161 16 -3 199 159 199 176 0 6
-51 40 -112 76 -61 36 -145 91 -187 122 -99 74 -295 266 -349 343 -116 164
-222 334 -222 356 0 4 -11 32 -24 61 -64 144 -111 303 -140 482 l-17 98 -91
94 c-50 52 -95 94 -100 94 -4 0 -8 -84 -8 -187z"/>
<path d="M4461 2644 l-91 -95 -16 -97 c-29 -177 -76 -337 -140 -480 -13 -29
-24 -57 -24 -61 0 -22 -106 -192 -222 -356 -54 -77 -250 -269 -349 -343 -42
-31 -126 -86 -187 -122 -61 -36 -112 -70 -112 -76 0 -17 183 -179 199 -176 16
4 263 151 271 161 3 4 32 28 65 53 33 25 76 63 96 84 20 22 64 65 98 97 120
114 303 387 362 542 17 44 41 107 54 140 13 33 33 98 45 145 11 47 25 101 30
121 18 67 40 294 40 411 0 114 -5 148 -20 148 -4 0 -48 -43 -99 -96z"/>
<path d="M1863 853 c-46 -48 -83 -91 -83 -94 0 -14 195 -67 330 -90 30 -6 74
-14 98 -19 55 -13 649 -13 704 0 24 5 68 13 98 19 130 22 293 65 317 84 16 12
-130 175 -165 184 -14 3 -72 -8 -139 -27 -220 -62 -285 -72 -458 -73 -174 0
-257 12 -465 73 -58 16 -116 30 -129 30 -18 0 -48 -24 -108 -87z"/>
</g>
</svg>
